<?xml version="1.0" encoding="utf-8"?>
<!-- Generator: Adobe Illustrator 28.2.0, SVG Export Plug-In . SVG Version: 6.00 Build 0)  -->
<svg version="1.1" id="Layer_1" xmlns="http://www.w3.org/2000/svg" xmlns:xlink="http://www.w3.org/1999/xlink" x="0px" y="0px"
	 viewBox="0 0 740.3 705.3" style="enable-background:new 0 0 740.3 705.3;" xml:space="preserve">
<style type="text/css">
	.st0{fill:#171C21;}
	.st1{fill:#DADADA;}
	.st2{fill:#B2B2B2;}
	.st3{fill:#CCCBD0;}
	.st4{fill:#878787;}
	.st5{fill:#E5E5E2;}
	.st6{fill:#2D91CA;}
	.st7{fill:url(#SVGID_1_);}
	.st8{fill:#006187;}
	.st9{fill:#FFFFFF;}
	.st10{fill:#808288;}
	.st11{fill:#F7C22E;}
	.st12{opacity:0.5;fill:#006186;enable-background:new    ;}
	.st13{fill:#006186;}
	.st14{fill:#56362C;}
	.st15{fill:#1C0B07;}
	.st16{fill:#422117;}
	.st17{fill:none;stroke:#171C21;stroke-width:8;stroke-linecap:round;stroke-miterlimit:10;}
	.st18{fill:#68605E;}
</style>
<g>
	<path class="st0" d="M475,459.6c-1.8,0-3.6-0.4-5.3-1.2l0,0c-0.7-0.3-69.1-33.3-117.2-17.8c-6.3,2-13.1-1.4-15.1-7.8
		c-2-6.3,1.4-13.1,7.8-15.1c57.4-18.5,132,17.5,135.1,19.1c6,2.9,8.4,10.1,5.5,16.1C483.7,457.2,479.5,459.6,475,459.6z"/>
	<path class="st1" d="M519.2,423.8c0,0-30.2-8.4-42.8,21.5s16.8,41.2,31.5,27.6C526.7,455.7,531.9,425.7,519.2,423.8z"/>
	<path class="st2" d="M502.2,452c0,0-8.2,6.3-9.6,16.2c-1.4,9.8,2,13.5,2,13.5l11.7-27.4"/>
	<path class="st3" d="M465.6,697.6H42.7c-3.4,0-6.1-2.8-6.1-6.1s2.8-6.1,6.1-6.1h422.9c3.4,0,6.1,2.8,6.1,6.1S469,697.6,465.6,697.6
		z"/>
	<rect x="234.5" y="488.2" class="st0" width="20.6" height="190.8"/>
	<path class="st1" d="M234.8,678.4c0,0,46.4-16.3,79.1-10.2c25.9,4.8,21.2,23.3,21.2,23.3H227.7"/>
	<path class="st4" d="M335.1,693.9H227.7c-1.4,0-2.5-1.1-2.5-2.5s1.1-2.5,2.5-2.5H335c1.4,0,2.5,1.1,2.5,2.5
		S336.4,693.9,335.1,693.9z"/>
	<rect x="183.4" y="488.2" class="st0" width="20.6" height="190.8"/>
	<path class="st5" d="M182.1,678.4c0,0,48.2-16.3,80.9-10.2c25.9,4.8,21.2,23.3,21.2,23.3H176.7"/>
	<path class="st2" d="M284.1,693.9H176.7c-1.4,0-2.5-1.1-2.5-2.5s1.1-2.5,2.5-2.5h107.4c1.4,0,2.5,1.1,2.5,2.5
		S285.4,693.9,284.1,693.9z"/>
	<polygon class="st6" points="50,534.4 163.9,534.4 173.7,515.5 174.5,260 163.9,237.2 40.2,256.9 	"/>
	
		<linearGradient id="SVGID_1_" gradientUnits="userSpaceOnUse" x1="411.349" y1="693.1733" x2="682.749" y2="693.1733" gradientTransform="matrix(-1 0 0 -1 846.6777 1078.9291)">
		<stop  offset="0" style="stop-color:#87C8AD"/>
		<stop  offset="0.2359" style="stop-color:#81C5B2"/>
		<stop  offset="0.5444" style="stop-color:#71BEC1"/>
		<stop  offset="0.892" style="stop-color:#56B2DA"/>
		<stop  offset="1" style="stop-color:#4CAEE3"/>
	</linearGradient>
	<polygon class="st7" points="163.9,534.4 425.4,534.4 435.3,252 163.9,237.2 	"/>
	<path class="st8" d="M232.7,329c-0.4,0-0.8-0.1-1.2-0.3l-12-7.7c-1-0.6-1.3-2-0.6-3c0.6-1,2-1.3,3-0.6l12,7.7c1,0.6,1.3,2,0.6,3
		C234.1,328.6,233.4,329,232.7,329z"/>
	<path class="st8" d="M237,321.2c-0.5,0-1-0.2-1.4-0.5l-11.2-9.5c-0.9-0.8-1-2.1-0.3-3c0.8-0.9,2.1-1,3-0.3l11.2,9.5
		c0.9,0.8,1,2.1,0.3,3C238.3,321,237.6,321.2,237,321.2z"/>
	<path class="st8" d="M314.6,410.1c-0.8,0-1.6-0.5-2-1.3c-0.4-1.1,0.1-2.4,1.2-2.8c0.1,0,12.2-5.1,14.7-12.5
		c0.8-2.3,0.5-4.7-0.9-7.1c-1.3-2.2-2.9-3.4-5-3.8c-5.2-0.9-12.1,3.6-14.4,5.4c-0.9,0.8-2.3,0.6-3-0.3c-0.7-0.9-0.6-2.3,0.3-3
		c0.4-0.3,9.7-7.8,17.8-6.3c3.4,0.6,6,2.6,8,5.8c2.1,3.5,2.5,7.1,1.3,10.6c-3.1,9.3-16.6,14.8-17.2,15.1
		C315.1,410.1,314.9,410.1,314.6,410.1z"/>
	<path class="st8" d="M383.3,289.3c-0.7,0-1.3-0.3-1.8-0.8c-20.2-20.2-42.5-11.3-43.4-10.9c-1.3,0.5-2.8-0.1-3.4-1.4
		s0.1-2.8,1.4-3.4c0.3-0.1,26.3-10.8,49.1,12c1,1,1,2.6,0,3.6C384.6,289,383.9,289.3,383.3,289.3z"/>
	<path class="st8" d="M223.3,284.4c-0.7,0-1.3-0.3-1.8-0.8c-1-1-1-2.6,0-3.6c22.8-22.8,48.8-12.1,49.1-12c1.3,0.6,1.9,2.1,1.4,3.4
		c-0.6,1.3-2.1,1.9-3.4,1.4l0,0c-0.9-0.4-23.2-9.4-43.4,10.9C224.6,284.1,223.9,284.4,223.3,284.4z"/>
	<path class="st9" d="M421.1,281.6H421c-1.4-0.1-2.5-1.3-2.4-2.7l0.8-14.1c0.1-1.4,1.2-2.5,2.7-2.4c1.4,0.1,2.5,1.3,2.4,2.7
		l-0.8,14.1C423.6,280.5,422.5,281.6,421.1,281.6z"/>
	<path class="st9" d="M418.6,371.5L418.6,371.5c-1.5,0-2.6-1.2-2.6-2.7l2.5-77c0-1.4,1.2-2.5,2.6-2.5h0.1c1.4,0,2.5,1.2,2.5,2.7
		l-2.5,77C421.2,370.4,420,371.5,418.6,371.5z"/>
	<path class="st8" d="M373.8,329c-0.7,0-1.4-0.3-1.8-1c-0.6-1-0.4-2.3,0.6-3l12-7.7c1-0.6,2.3-0.4,3,0.6c0.6,1,0.4,2.3-0.6,3
		l-12,7.7C374.6,328.8,374.2,329,373.8,329z"/>
	<path class="st8" d="M369.5,321.2c-0.6,0-1.2-0.3-1.6-0.8c-0.8-0.9-0.7-2.3,0.3-3l11.2-9.5c0.9-0.8,2.3-0.7,3,0.3
		c0.8,0.9,0.7,2.3-0.3,3l-11.2,9.5C370.5,321.1,370,321.2,369.5,321.2z"/>
	<path class="st2" d="M502.9,455.4c-2,0-4-0.4-6.2-1.2c-1-0.3-1.4-1.4-1.1-2.4c0.3-1,1.4-1.4,2.4-1.1c13.3,4.8,20.3-10.8,20.6-11.5
		c0.4-0.9,1.5-1.4,2.4-1c6.5,2.8,16.1,4.2,17.4,4.2c0.9-0.1,1.7,0.4,2,1.2c0.3,1-0.2,2-1.2,2.3c-1.4,0.5-11.3-1.2-18.1-3.7
		C518.3,448,511.9,455.4,502.9,455.4z"/>
	<path class="st2" d="M479.6,474.7c-0.2,0-0.3,0-0.5-0.1c-1-0.3-1.6-1.3-1.3-2.3l10.8-39.9c0.3-1,1.3-1.6,2.3-1.3s1.6,1.3,1.3,2.3
		l-10.8,39.9C481.2,474.2,480.4,474.7,479.6,474.7z"/>
	<path class="st1" d="M471.1,476.5c-0.7,0-1.5-0.1-2.2-0.3c-4.6-1.2-7.3-5.9-6.1-10.5l9.8-36.9c1.2-4.6,5.9-7.3,10.5-6.1
		s7.3,5.9,6.1,10.5l-9.8,36.9C478.4,473.9,474.9,476.5,471.1,476.5z"/>
	<path class="st9" d="M262.8,368.8c7.5-0.4,14.5,0.3,20.4,1.9c3.8-7,6-15.7,6-25.1c0-23.3-13.7-42.2-30.5-42.2
		c-16.9,0-30.5,18.9-30.5,42.2c0,11.6,3.4,22.1,8.9,29.8C243.7,371.8,252.8,369.4,262.8,368.8z"/>
	<path class="st9" d="M347.7,368.9c8.3,1,15.9,3.3,21.8,6.3c5.4-7.6,8.8-18.1,8.8-29.6c0-23.3-13.7-42.2-30.5-42.2
		c-16.9,0-30.5,18.9-30.5,42.2c0,9.3,2.2,17.8,5.8,24.7C329.9,368.5,338.5,367.8,347.7,368.9z"/>
	<g>
		
			<rect x="550.4" y="385.7" transform="matrix(0.5689 -0.8224 0.8224 0.5689 -78.7089 644.23)" class="st10" width="49.4" height="23"/>
		<path class="st10" d="M697.9,219.7C653.3,188.8,592,200,561.2,244.6S541.4,350.4,586,381.3s105.9,19.7,136.7-24.9
			C753.7,311.8,742.5,250.5,697.9,219.7z M593.5,370.6c-38.7-26.8-48.4-79.9-21.6-118.6c26.8-38.7,79.9-48.4,118.6-21.6
			c38.7,26.8,48.4,79.9,21.6,118.6C685.4,387.7,632.2,397.4,593.5,370.6z"/>
		<path class="st11" d="M505.9,520.5l-21.7-15.1c-4.5-3.1-5.5-9.1-2.4-13.6l64.5-93.3c3.1-4.5,9.1-5.5,13.6-2.4l21.7,15.1
			c4.5,3.1,5.5,9.1,2.4,13.6l-64.5,93.3C516.4,522.4,510.4,523.6,505.9,520.5z"/>
	</g>
	<path class="st1" d="M515.2,424.3c2.1-0.7,4.9-1.6,25.3,4.9c4.1,1.3,6.3,5.6,5,9.7c-1.3,4.1-5.7,6.3-9.7,5
		c-5.6-1.8-12.4-3.7-15.8-4.4c-1.9,1.8-5.1,5.2-7.9,8.6c-1.5,1.8-3.7,2.7-5.9,2.7c-1.8,0-3.5-0.6-5-1.8c-3.3-2.8-3.7-7.6-0.9-10.9"
		/>
	<path class="st1" d="M557.3,471.3L539,467c-1.9-0.4-3-2.3-2.6-4.2l2.3-9.8c0.4-1.9,2.3-3,4.2-2.6l18.3,4.3c1.9,0.4,3,2.3,2.6,4.2
		l-2.3,9.8C561,470.6,559.2,471.7,557.3,471.3z"/>
	<path class="st1" d="M542.1,501.6l-18.3-4.3c-1.9-0.4-3-2.3-2.6-4.2l2.3-9.8c0.4-1.9,2.3-3,4.2-2.6L546,485c1.9,0.4,3,2.3,2.6,4.2
		l-2.3,9.8C545.8,500.8,543.9,502,542.1,501.6z"/>
	<path class="st1" d="M550.9,486.7l-27.4-6.4c-1.9-0.4-3-2.3-2.6-4.2l2.3-9.8c0.4-1.9,2.3-3,4.2-2.6l27.4,6.4c1.9,0.4,3,2.3,2.6,4.2
		l-2.3,9.8C554.6,486,552.7,487.2,550.9,486.7z"/>
	<path class="st12" d="M284.2,463.4c5.6,0,9.3-2,9.6-2.2c0.7-0.4,1-1.4,0.6-2.2c-0.3-0.8-1.2-1.1-1.9-0.7l0,0
		c-0.4,0.3-10.8,5.9-24.1-4c-0.7-0.5-1.5-0.3-2,0.5c-0.4,0.8-0.2,1.8,0.4,2.2C273.5,462,279.5,463.4,284.2,463.4z"/>
	<path class="st0" d="M266.3,320.1c-10.1,0-18.3,12.8-18.3,28.5c0,8.2,3.5,17.8,7,23c7-1.2,14.5-4.3,25.1-4.4
		c2.7-5,4.4-11.4,4.4-18.5C284.5,332.8,276.4,320.1,266.3,320.1z"/>
	<path class="st0" d="M356.8,322.9c-10.1,0-18.3,12.8-18.3,28.5c0,7.2,1.7,13.8,4.6,18.8c10.6,0.6,18.9,2,25.1,3.5
		c4.2-5.2,6.9-13.3,6.9-22.3C375.1,335.7,366.9,322.9,356.8,322.9z"/>
	<path class="st8" d="M231.9,379.3c-0.6,0-1.2-0.3-1.5-0.8c-0.5-0.8-0.2-1.9,0.6-2.4c0.6-0.4,16.3-9.4,53.1-8.8c1,0,1.7,0.8,1.7,1.7
		c0,1-0.8,1.8-1.7,1.7c-35.7-0.5-51.1,8.3-51.3,8.4C232.5,379.2,232.2,379.3,231.9,379.3z"/>
	<path class="st8" d="M374.7,379.3c-0.3,0-0.6-0.1-0.9-0.2c-0.2-0.1-15.7-8.9-51.3-8.4c-1,0.1-1.7-0.7-1.7-1.7
		c0-0.9,0.7-1.7,1.7-1.7c36.8-0.6,52.4,8.5,53.1,8.8c0.8,0.5,1.1,1.5,0.6,2.4C375.8,379,375.2,379.3,374.7,379.3z"/>
	<circle class="st13" cx="283.6" cy="433.9" r="11.5"/>
	<path class="st14" d="M439.7,231.9h-19.5C408.8,145.3,334.7,78.5,245,78.5S81.2,145.4,69.9,231.9H29.2c-15.9,0-28.9,5.2-28.9,11.6
		s13,11.6,28.9,11.6h410.5c15.9,0,28.9-5.2,28.9-11.6S455.6,231.9,439.7,231.9z"/>
	<path class="st15" d="M177.3,97.1v15.7h-15.8V99.4c-1.1,0.6-2.2,1.2-3.3,1.8v11.6h-15.7v-1.6c-2.2,1.6-4.4,3.2-6.5,4.9h3.2v15.7
		h-15.7v-4.9c-1.1,1.1-2.2,2.1-3.3,3.2v1.7h-1.7c-1.1,1.1-2.1,2.2-3.1,3.3h4.8v16.5h-16.5v-2.5c-1.4,1.9-2.8,3.8-4.2,5.8h0.8v16.5
		h-11c-0.6,1.1-1.2,2.2-1.7,3.3h12.7v16.5H83.8v-8.5c-1.2,2.6-2.3,5.2-3.3,7.9v0.6h-0.2c-0.4,1.1-0.8,2.2-1.2,3.3h1.5v17h-6.7
		c-0.3,1.1-0.5,2.2-0.8,3.3h7.5v17H29.3c-7.8,0-15,1.3-20.2,3.3h11v18.8h-3c3.7,0.7,7.8,1.1,12.2,1.1h410.5c4.3,0,8.5-0.4,12.2-1.1
		h-9.6v-18.8h16.5V252c1.2-0.4,2.3-0.9,3.3-1.4v-14.5c-5.3-2.6-13.4-4.3-22.5-4.3h-19.5c-0.3-2.2-0.6-4.4-1-6.6v6.6h-17v-17h14.9
		c-0.3-1.1-0.5-2.2-0.8-3.3h-14.1v-17h8.9c-0.4-1.1-0.8-2.2-1.2-3.3h-7.6v-16.5h0.2c-1.1-2.2-2.3-4.4-3.5-6.6v3.2h-17v-16.5h8.6
		c-0.8-1.1-1.5-2.2-2.3-3.3H382v-8.2c-1.1-1.3-2.2-2.6-3.3-3.9v12.1h-18.8V135h14.8c-1-1.1-2.1-2.2-3.1-3.3h-11.7v-11
		c-1.1-0.9-2.2-1.9-3.3-2.8v13.7h-15.8v-15.7h13.3c-1.4-1.1-2.9-2.2-4.3-3.3h-8.9v-6c-1.1-0.7-2.2-1.4-3.3-2.1v8.2h-15.7V97h2.3
		c-2.3-1.1-4.6-2.3-7-3.3h-14.4V88c-1.1-0.4-2.2-0.7-3.3-1.1v6.8H283V82.4c-1.1-0.2-2.2-0.5-3.3-0.7v11.9h-16.5V79.2
		c-1.1-0.1-2.2-0.2-3.3-0.3v14.7h-16.5V78.3c-1.1,0-2.2,0-3.3,0.1v15.3h-17v-14c-1.1,0.1-2.2,0.3-3.3,0.4v13.5h-17v-10
		c-1.1,0.3-2.2,0.6-3.3,0.8v9.4h-18.8v-3.2c-1.1,0.4-2.2,0.9-3.3,1.3v1.9H173c-2.4,1.1-4.7,2.2-7,3.3L177.3,97.1L177.3,97.1z
		 M40.3,254H23.4v-18.8h17L40.3,254L40.3,254z M60.6,254h-17v-18.8h17V254z M80.5,254H64v-18.8h16.5V254z M100.3,254H83.8v-18.8
		h16.5V254z M100.3,231.9H83.8v-17h16.5V231.9z M100.3,211.6H83.8v-17h16.5V211.6z M120.2,254h-16.5v-18.8h16.5V254z M120.2,231.9
		h-16.5v-17h16.5V231.9z M120.2,211.6h-16.5v-17h16.5V211.6z M120.2,191.4h-16.5v-16.5h16.5V191.4z M120.2,171.5h-16.5V155h16.5
		V171.5z M139.2,254h-15.7v-18.8h15.7V254z M139.2,231.9h-15.7v-17h15.7V231.9z M139.2,211.6h-15.7v-17h15.7V211.6z M139.2,191.3
		h-15.7v-16.5h15.7V191.3z M139.2,171.5h-15.7V155h15.7V171.5z M139.2,151.7h-15.7v-16.5h15.7V151.7z M158.2,254h-15.7v-18.8h15.7
		V254z M158.2,231.9h-15.7v-17h15.7V231.9z M158.2,211.6h-15.7v-17h15.7V211.6z M158.2,191.3h-15.7v-16.5h15.7V191.3z M158.2,171.5
		h-15.7V155h15.7V171.5z M158.2,151.7h-15.7v-16.5h15.7V151.7z M158.2,131.8h-15.7v-15.7h15.7V131.8z M177.3,254h-15.8v-18.8h15.8
		V254z M177.3,231.9h-15.8v-17h15.8V231.9z M177.3,211.6h-15.8v-17h15.8V211.6z M177.3,191.3h-15.8v-16.5h15.8V191.3z M177.3,171.5
		h-15.8V155h15.8V171.5z M177.3,151.7h-15.8v-16.5h15.8V151.7z M177.3,131.8h-15.8v-15.7h15.8V131.8z M422.5,235.2H439V254h-16.5
		L422.5,235.2L422.5,235.2z M402.3,235.2h17V254h-17V235.2z M382,174.8h17v16.5h-17V174.8z M382,194.7h17v17h-17V194.7z M382,214.9
		h17v17h-17V214.9z M382,235.2h17V254h-17V235.2z M359.9,155h18.8v16.5h-18.8V155z M359.9,174.8h18.8v16.5h-18.8V174.8z
		 M359.9,194.7h18.8v17h-18.8V194.7z M359.9,214.9h18.8v17h-18.8V214.9z M359.9,235.2h18.8V254h-18.8V235.2z M340.8,135.1h15.8v16.5
		h-15.8V135.1z M340.8,155h15.8v16.5h-15.8V155z M340.8,174.8h15.8v16.5h-15.8V174.8z M340.8,194.7h15.8v17h-15.8V194.7z
		 M340.8,214.9h15.8v17h-15.8V214.9z M340.8,235.2h15.8V254h-15.8V235.2z M321.8,116.1h15.7v15.7h-15.7V116.1z M321.8,135.1h15.7
		v16.5h-15.7V135.1z M321.8,155h15.7v16.5h-15.7V155z M321.8,174.8h15.7v16.5h-15.7V174.8z M321.8,194.7h15.7v17h-15.7V194.7z
		 M321.8,214.9h15.7v17h-15.7V214.9z M321.8,235.2h15.7V254h-15.7V235.2z M302.8,97.1h15.7v15.7h-15.7V97.1L302.8,97.1z
		 M302.8,116.1h15.7v15.7h-15.7V116.1z M302.8,135.1h15.7v16.5h-15.7V135.1z M302.8,155h15.7v16.5h-15.7V155z M302.8,174.8h15.7
		v16.5h-15.7V174.8z M302.8,194.7h15.7v17h-15.7V194.7z M302.8,214.9h15.7v17h-15.7V214.9z M302.8,235.2h15.7V254h-15.7V235.2z
		 M282.9,97.1h16.5v15.7h-16.5V97.1L282.9,97.1z M282.9,116.1h16.5v15.7h-16.5V116.1z M282.9,135.1h16.5v16.5h-16.5V135.1z
		 M282.9,155h16.5v16.5h-16.5V155z M282.9,174.8h16.5v16.5h-16.5V174.8z M282.9,194.7h16.5v17h-16.5V194.7z M282.9,214.9h16.5v17
		h-16.5V214.9z M282.9,235.2h16.5V254h-16.5V235.2z M263.1,97.1h16.5v15.7h-16.5V97.1L263.1,97.1z M263.1,116.1h16.5v15.7h-16.5
		V116.1z M263.1,135.1h16.5v16.5h-16.5V135.1z M263.1,155h16.5v16.5h-16.5V155z M263.1,174.8h16.5v16.5h-16.5V174.8z M263.1,194.7
		h16.5v17h-16.5V194.7z M263.1,214.9h16.5v17h-16.5V214.9z M263.1,235.2h16.5V254h-16.5V235.2z M243.2,97.1h16.5v15.7h-16.5V97.1
		L243.2,97.1z M243.2,116.1h16.5v15.7h-16.5V116.1z M243.2,135.1h16.5v16.5h-16.5V135.1z M243.2,155h16.5v16.5h-16.5V155z
		 M243.2,174.8h16.5v16.5h-16.5V174.8z M243.2,194.7h16.5v17h-16.5V194.7z M243.2,214.9h16.5v17h-16.5V214.9z M243.2,235.2h16.5V254
		h-16.5V235.2z M223,97.1h17v15.7h-17V97.1L223,97.1z M223,116.1h17v15.7h-17V116.1z M223,135.1h17v16.5h-17V135.1z M223,155h17
		v16.5h-17V155z M223,174.8h17v16.5h-17V174.8z M223,194.7h17v17h-17V194.7z M223,214.9h17v17h-17V214.9z M223,235.2h17V254h-17
		V235.2z M202.7,97.1h17v15.7h-17V97.1L202.7,97.1z M202.7,116.1h17v15.7h-17V116.1z M202.7,135.1h17v16.5h-17V135.1z M202.7,155h17
		v16.5h-17V155z M202.7,174.8h17v16.5h-17V174.8z M202.7,194.7h17v17h-17V194.7z M202.7,214.9h17v17h-17V214.9z M202.7,235.2h17V254
		h-17V235.2z M180.6,97.1h18.8v15.7h-18.8V97.1L180.6,97.1z M180.6,116.1h18.8v15.7h-18.8V116.1z M180.6,135.1h18.8v16.5h-18.8
		V135.1z M180.6,155h18.8v16.5h-18.8V155z M180.6,174.8h18.8v16.5h-18.8V174.8z M180.6,194.7h18.8v17h-18.8V194.7z M180.6,214.9
		h18.8v17h-18.8V214.9z M180.6,235.2h18.8V254h-18.8V235.2z"/>
	<path class="st16" d="M228,77.3c-0.8-1.3-72.6,8.9-72.7,1.1c-0.1-7.8,12.4-33.1,20-37.8c7.6-4.6,57.8,11,57.8,11S266,0,278.7,0.9
		s29.2,18.8,27,22.8s-57.6,43.2-57.6,43.2s-9.7-3.7-8.5-3.6c1.2,0,46.1-37.5,45.4-40.5s-8.7-7.5-12-7.1
		c-3.3,0.4-36.4,46.4-36.4,46.4s-55-13.2-57.5-11.4s-9.6,15.2-8.9,16.6c0.8,1.4,59.6,0.5,59.6,0.5L228,77.3L228,77.3z"/>
	<path class="st16" d="M244.5,60.1c-46.2,0-84.3,75.9-89.2,173.4c-0.6,11.5,3.6,21.5,8.9,21.5h160.7c5.3,0,9.5-10,8.9-21.5
		C328.8,136,290.8,60.1,244.5,60.1z"/>
	<path class="st17" d="M185.6,482.5c-53.4,0-96.7-29.3-96.7-65.4"/>
	<g>
		<path class="st16" d="M278.7,441.4c0,0-10.8,73-27.2,76.9c-16.4,3.9-47.8-3.3-50.3-21.6c-2.4-18.3,3.3-66.2-6.7-85.6
			c-10-19.4-46.7-23.8-46.7-23.8l2.4-8.8c0,0,45.6,5,59.8,30.7s7.7,63.1,7.7,63.1l9.9-44.6L278.7,441.4L278.7,441.4z"/>
		<path class="st18" d="M225.8,430l53.8,14.1c0,0,3.5-4.1,1.9-8.2c-1.6-4.1-52.1-14.4-53.8-13.5C225.9,423.3,224.9,428.2,225.8,430
			L225.8,430z"/>
		<path class="st18" d="M147.8,387.3c0,0-10.3-1.9-22.3,2l-1.9-4.2c0,0,13.1-8.2,26.7-6.6L147.8,387.3L147.8,387.3z"/>
	</g>
	<g>
		<path class="st1" d="M180.2,471.6c1.7-16,36-17.5,32.2,13.8s-33.9,22.9-34.1,8.5"/>
		<path class="st1" d="M223.7,454.3c0,0.1,0,0.2,0,0.3c-0.7,4.7-4.4,8-8.4,7.4c-12.5-1.9-19.9,15.9-20,16.1
			c-1.8,4.3-6.1,6.3-9.7,4.4c-3.6-1.9-5.1-7-3.4-11.3c0.5-1.2,12.4-29.7,35.5-26.2C221.5,445.6,224.2,449.7,223.7,454.3z"/>
		<path class="st1" d="M247,472.8c-0.3,3.2-2.2,6.1-4.9,7.3c-11.3,5-37.2,4.8-40.1,4.8c-4,0-7.1-3.9-7-8.7c0.2-4.7,3.6-8.5,7.6-8.5
			c10,0.1,28.2-0.8,34.7-3.7c3.8-1.7,8,0.6,9.2,5C247,470.2,247.1,471.5,247,472.8z"/>
		<path class="st1" d="M248.1,496.7c0,0.1,0,0.2,0,0.3c-0.7,4.7-4.4,8-8.4,7.4l-38.2-5.8c-4-0.6-6.7-4.9-6-9.6
			c0.7-4.7,4.4-8,8.4-7.4l38.2,5.8C245.9,488,248.6,492.1,248.1,496.7z"/>
		<path class="st1" d="M241.8,515.2c0,0.2,0,0.3-0.1,0.5c-0.7,4.7-4.5,7.9-8.5,7.2c-43.5-7.6-54.6-22.4-56.3-25.3l11.9-10.4
			l-0.2-0.3c0.1,0.1,9.2,12.3,47.2,18.9C239.7,506.6,242.3,510.7,241.8,515.2z"/>
		<path class="st2" d="M185.7,467.5l-3.5,33.1c-0.2,1.4-1.2,2.5-2.4,2.3c-1.2-0.1-2-1.4-1.9-2.8l3.5-33.1c0.2-1.4,1.2-2.5,2.4-2.3
			C185,464.9,185.9,466.1,185.7,467.5z"/>
		<path class="st1" d="M183.4,469l-3,27.9c-0.5,4.7-4.2,8.2-8.1,7.8c-4-0.4-6.8-4.6-6.3-9.3l3-27.9c0.5-4.7,4.2-8.2,8.1-7.8
			C181,460.1,183.9,464.3,183.4,469z"/>
	</g>
</g>
</svg>
